<svg width="42" height="44" viewBox="0 0 42 44" fill="none" xmlns="http://www.w3.org/2000/svg">
<g id="5f84417443f34a56664f52e2_Logo%20-%20Slite%20-%20Icon.svg" clip-path="url(#clip0_2_428)">
<path id="Vector" d="M41.9989 17.1483C41.9989 20.0754 39.8365 22.5047 37.0302 22.9253C35.6915 20.8565 33.3917 19.4659 30.7658 19.4059C30.474 18.7106 30.311 17.9466 30.311 17.1483C30.311 13.9208 32.9369 11.3027 36.155 11.3027C39.373 11.3027 41.9989 13.9294 41.9989 17.1483ZM35.52 2.4957C32.2933 2.4957 29.6758 5.12235 29.6758 8.3413C29.6758 9.58596 30.0707 10.7448 30.74 11.6976C32.1303 10.3156 34.0438 9.46576 36.155 9.46576C37.8712 9.46576 39.4587 10.0323 40.7375 10.9851C41.1408 10.1954 41.3724 9.29409 41.3724 8.34987C41.364 5.12235 38.7465 2.4957 35.52 2.4957ZM23.1196 28.891C22.6905 28.7879 22.2443 28.7364 21.7895 28.7364C18.5628 28.7364 15.9454 31.3632 15.9454 34.5821C15.9454 37.801 18.5714 40.4276 21.7895 40.4276C25.0075 40.4276 27.6335 37.801 27.6335 34.5821C27.6335 34.4533 27.6248 34.3332 27.6164 34.2044C25.3851 33.2687 23.6859 31.2944 23.1196 28.891ZM14.1004 34.5821C14.1004 33.6121 14.2806 32.6851 14.6153 31.8267C14.2549 31.7581 13.8859 31.715 13.4997 31.715C10.2731 31.715 7.65569 34.3416 7.65569 37.5607C7.65569 40.7881 10.2816 43.4062 13.4997 43.4062C15.319 43.4062 16.9409 42.5737 18.0136 41.2689C15.6794 39.9555 14.1004 37.449 14.1004 34.5821ZM0.541612 34.7709C0.541612 37.9985 3.16756 40.6164 6.38562 40.6164C6.40279 40.6164 6.42853 40.6164 6.44569 40.6164C6.04236 39.6808 5.81066 38.6507 5.81066 37.5692C5.81066 34.4276 7.6986 31.7323 10.4018 30.5391C9.35483 29.5435 7.93887 28.9254 6.38562 28.9254C3.16756 28.9254 0.541612 31.552 0.541612 34.7709ZM5.84499 19.7149C2.61834 19.7149 0.000976562 22.3415 0.000976562 25.5604C0.000976562 26.8909 0.447216 28.1183 1.20239 29.1055C2.56686 27.8523 4.38613 27.0883 6.38562 27.0883C8.05902 27.0883 9.61228 27.6291 10.8738 28.539C11.3972 27.6635 11.6976 26.6419 11.6976 25.5604C11.6976 22.333 9.07165 19.7149 5.84499 19.7149ZM13.0535 8.77905C9.98987 8.77905 7.50123 11.2684 7.50123 14.3328C7.50123 17.3972 9.98987 19.8865 13.0535 19.8865C16.1171 19.8865 18.6057 17.3972 18.6057 14.3328C18.6057 11.2684 16.1171 8.77905 13.0535 8.77905ZM30.6028 21.2857C27.3761 21.2857 24.7672 23.9038 24.7672 27.1227C24.7672 30.3416 27.3845 32.9598 30.6028 32.9598C33.8208 32.9598 36.4381 30.3416 36.4381 27.1227C36.4381 23.9038 33.8293 21.2857 30.6028 21.2857ZM21.6436 5.9464C21.6436 9.17392 24.2695 11.792 27.4876 11.792C27.8651 11.792 28.2342 11.7577 28.5947 11.689C28.1054 10.6761 27.8309 9.54303 27.8309 8.34987C27.8309 5.56013 29.324 3.11374 31.5553 1.76608C30.4997 0.744601 29.0666 0.109396 27.4789 0.109396C24.2695 0.100812 21.6436 2.71888 21.6436 5.9464Z" fill="#2F2F30"/>
</g>
<defs>
<clipPath id="clip0_2_428">
<rect width="41.998" height="43.2969" fill="white" transform="translate(0.000976562 0.109375)"/>
</clipPath>
</defs>
</svg>
